<svg width="24" height="24" viewBox="0 0 24 24" fill="none" xmlns="http://www.w3.org/2000/svg">
<path d="M18 6H15.9844C15.9844 3.79688 14.2031 2.01562 12 2.01562C9.79688 2.01562 8.01562 3.79688 8.01562 6H6C4.92188 6 3.98438 6.89062 3.98438 8.01562V20.0156C3.98438 21.0938 4.92188 21.9844 6 21.9844H18C19.0781 21.9844 20.0156 21.0938 20.0156 20.0156V8.01562C20.0156 6.89062 19.0781 6 18 6ZM12 3.98438C13.0781 3.98438 14.0156 4.92188 14.0156 6H9.98438C9.98438 4.92188 10.9219 3.98438 12 3.98438ZM18 20.0156H6V8.01562H8.01562V9.98438C8.01562 10.5469 8.4375 11.0156 9 11.0156C9.5625 11.0156 9.98438 10.5469 9.98438 9.98438V8.01562H14.0156V9.98438C14.0156 10.5469 14.4375 11.0156 15 11.0156C15.5625 11.0156 15.9844 10.5469 15.9844 9.98438V8.01562H18V20.0156Z" fill="#94A3B8"/>
</svg>
