<svg width="18" height="18" viewBox="0 0 18 18" fill="none" xmlns="http://www.w3.org/2000/svg">
<path d="M15.0117 6.01172H12.7617V2.98828H2.25C1.44141 2.98828 0.738281 3.69141 0.738281 4.5V12.7617H2.25C2.25 13.9922 3.26953 15.0117 4.5 15.0117C5.73047 15.0117 6.75 13.9922 6.75 12.7617H11.25C11.25 13.9922 12.2695 15.0117 13.5 15.0117C14.7305 15.0117 15.75 13.9922 15.75 12.7617H17.2617V9L15.0117 6.01172ZM14.625 7.13672L16.1016 9H12.7617V7.13672H14.625ZM4.5 13.5C4.07812 13.5 3.76172 13.1484 3.76172 12.7617C3.76172 12.3398 4.07812 11.9883 4.5 11.9883C4.92188 11.9883 5.23828 12.3398 5.23828 12.7617C5.23828 13.1484 4.92188 13.5 4.5 13.5ZM6.15234 11.25C5.76562 10.793 5.16797 10.5117 4.5 10.5117C3.83203 10.5117 3.23438 10.793 2.84766 11.25H2.25V4.5H11.25V11.25H6.15234ZM13.5 13.5C13.0781 13.5 12.7617 13.1484 12.7617 12.7617C12.7617 12.3398 13.0781 11.9883 13.5 11.9883C13.9219 11.9883 14.2383 12.3398 14.2383 12.7617C14.2383 13.1484 13.9219 13.5 13.5 13.5Z" fill="#64748B"/>
</svg>
