<svg width="20" height="20" viewBox="0 0 20 20" fill="none" xmlns="http://www.w3.org/2000/svg">
<path d="M10 16.2505C9.75277 16.2505 9.5111 16.1772 9.30554 16.0398C9.09998 15.9025 8.93976 15.7073 8.84515 15.4788C8.75054 15.2504 8.72579 14.9991 8.77402 14.7566C8.82225 14.5141 8.9413 14.2914 9.11612 14.1166C9.29093 13.9418 9.51366 13.8227 9.75614 13.7745C9.99861 13.7263 10.2499 13.751 10.4784 13.8456C10.7068 13.9402 10.902 14.1005 11.0393 14.306C11.1767 14.5116 11.25 14.7533 11.25 15.0005C11.25 15.332 11.1183 15.65 10.8839 15.8844C10.6495 16.1188 10.3315 16.2505 10 16.2505Z" fill="#101820"/>
<path d="M10 12.5005C9.83424 12.5005 9.67527 12.4346 9.55806 12.3174C9.44085 12.2002 9.375 12.0412 9.375 11.8755V6.87549C9.375 6.70973 9.44085 6.55076 9.55806 6.43355C9.67527 6.31634 9.83424 6.25049 10 6.25049C10.1658 6.25049 10.3247 6.31634 10.4419 6.43355C10.5592 6.55076 10.625 6.70973 10.625 6.87549V11.8755C10.625 12.0412 10.5592 12.2002 10.4419 12.3174C10.3247 12.4346 10.1658 12.5005 10 12.5005Z" fill="#101820"/>
<path d="M17.3625 18.7505H2.6375C2.28827 18.7529 1.94453 18.6635 1.6407 18.4913C1.33687 18.3191 1.0836 18.0701 0.906253 17.7692C0.72882 17.4751 0.631942 17.1395 0.625359 16.7961C0.618777 16.4527 0.702721 16.1136 0.868753 15.813L8.23125 2.29421C8.40547 1.97754 8.66151 1.71344 8.97264 1.52951C9.28377 1.34557 9.63857 1.24854 10 1.24854C10.3614 1.24854 10.7162 1.34557 11.0274 1.52951C11.3385 1.71344 11.5945 1.97754 11.7688 2.29421L19.1313 15.813C19.2973 16.1136 19.3812 16.4527 19.3746 16.7961C19.3681 17.1395 19.2712 17.4751 19.0938 17.7692C18.9164 18.0701 18.6631 18.3191 18.3593 18.4913C18.0555 18.6635 17.7117 18.7529 17.3625 18.7505ZM10 2.50046C9.86295 2.49746 9.72778 2.53271 9.60965 2.60226C9.49152 2.67181 9.39511 2.77291 9.33125 2.89421L1.96875 16.4067C1.90257 16.516 1.86758 16.6414 1.86758 16.7692C1.86758 16.897 1.90257 17.0224 1.96875 17.1317C2.03277 17.2414 2.12382 17.3329 2.23323 17.3975C2.34264 17.462 2.46676 17.4975 2.59375 17.5005H17.3625C17.4895 17.4975 17.6136 17.462 17.723 17.3975C17.8324 17.3329 17.9235 17.2414 17.9875 17.1317C18.0537 17.0224 18.0887 16.897 18.0887 16.7692C18.0887 16.6414 18.0537 16.516 17.9875 16.4067L10.6688 2.89421C10.6049 2.77291 10.5085 2.67181 10.3904 2.60226C10.2722 2.53271 10.1371 2.49746 10 2.50046Z" fill="#101820"/>
</svg>
