<svg width="18" height="18" viewBox="0 0 18 18" fill="none" xmlns="http://www.w3.org/2000/svg">
<path d="M15.0117 1.51172H2.98828C2.25 1.51172 1.51172 2.17969 1.51172 2.98828V5.27344C1.51172 5.80078 1.82812 6.25781 2.25 6.53906V15.0117C2.25 15.8203 3.05859 16.4883 3.76172 16.4883H14.2383C14.9414 16.4883 15.75 15.8203 15.75 15.0117V6.53906C16.1719 6.25781 16.4883 5.80078 16.4883 5.27344V2.98828C16.4883 2.17969 15.75 1.51172 15.0117 1.51172ZM14.2383 15.0117H3.76172V6.75H14.2383V15.0117ZM15.0117 5.23828H2.98828V2.98828H15.0117V5.23828ZM6.75 9H11.25V10.5117H6.75V9Z" fill="#84D153"/>
</svg>
