<svg width="18" height="18" viewBox="0 0 18 18" fill="none" xmlns="http://www.w3.org/2000/svg">
<path d="M16.418 6.67969L15.6445 3.375C15.4687 2.70703 14.8711 2.25 14.2031 2.25H3.79687C3.1289 2.25 2.53125 2.70703 2.35546 3.375L1.58203 6.67969C1.40625 7.41797 1.54687 8.22656 2.03906 8.82422C2.10937 8.89453 2.17968 8.96484 2.25 9.03516V14.2383C2.25 15.082 2.91796 15.75 3.76171 15.75H14.2383C15.082 15.75 15.75 15.082 15.75 14.2383V9.03516C15.8203 8.96484 15.8906 8.89453 15.9609 8.82422C16.4531 8.22656 16.6289 7.41797 16.418 6.67969ZM14.168 3.72656L14.9766 7.03125C15.0469 7.34766 14.9766 7.66406 14.7656 7.91016C14.6602 8.01562 14.4492 8.26172 14.0625 8.26172C13.6055 8.26172 13.2187 7.875 13.1836 7.38281L12.7266 3.76172L14.168 3.72656ZM9.73828 3.76172H11.2148L11.6367 7.13672C11.6719 7.41797 11.5664 7.73438 11.3906 7.94531C11.2148 8.12109 10.9687 8.26172 10.6523 8.26172C10.1602 8.26172 9.73828 7.80469 9.73828 7.27734V3.76172ZM6.36328 7.13672L6.78515 3.76172H8.26171V7.27734C8.26171 7.80469 7.83984 8.26172 7.27734 8.26172C7.03125 8.26172 6.78515 8.12109 6.60937 7.94531C6.43359 7.73438 6.32812 7.41797 6.36328 7.13672ZM3.02343 7.03125L3.79687 3.76172H5.27343L4.8164 7.38281C4.78125 7.875 4.39453 8.26172 3.9375 8.26172C3.55078 8.26172 3.33984 8.01562 3.23437 7.91016C3.02343 7.66406 2.95312 7.34766 3.02343 7.03125ZM3.76171 14.2383V9.73828C3.79687 9.73828 3.86718 9.73828 3.9375 9.73828C4.57031 9.73828 5.16796 9.49219 5.58984 9.03516C6.04687 9.49219 6.64453 9.73828 7.34765 9.73828C7.98046 9.73828 8.57812 9.49219 9 9.03516C9.45703 9.49219 10.0547 9.73828 10.7227 9.73828C11.3555 9.73828 11.9531 9.49219 12.4102 9.03516C12.832 9.49219 13.4297 9.73828 14.0977 9.73828C14.1328 9.73828 14.2031 9.73828 14.2734 9.73828V14.2383H3.76171Z" fill="#64748B"/>
</svg>
