<svg width="16" height="17" viewBox="0 0 16 17" fill="none" xmlns="http://www.w3.org/2000/svg">
<path d="M13 4.16659L12.5867 10.8499C12.4813 12.5573 12.4287 13.4113 12 14.0253C11.7884 14.3287 11.5159 14.5848 11.2 14.7773C10.562 15.1666 9.70667 15.1666 7.996 15.1666C6.28267 15.1666 5.426 15.1666 4.78667 14.7766C4.47059 14.5837 4.19814 14.3272 3.98667 14.0233C3.55867 13.4086 3.50667 12.5533 3.404 10.8433L3 4.16659M2 4.16659H14M10.704 4.16659L10.2487 3.22792C9.94667 2.60392 9.79533 2.29259 9.53467 2.09792C9.47676 2.0548 9.41545 2.01645 9.35133 1.98325C9.06267 1.83325 8.716 1.83325 8.02333 1.83325C7.31267 1.83325 6.95733 1.83325 6.66333 1.98925C6.59834 2.02406 6.53635 2.0642 6.478 2.10925C6.21467 2.31125 6.06733 2.63459 5.77267 3.28059L5.36867 4.16659M6.33333 11.4999V7.49992M9.66667 11.4999V7.49992" stroke="#BA0000" stroke-linecap="round" stroke-linejoin="round"/>
</svg>
